<?xml version="1.0" encoding="UTF-8" standalone="no"?>
<!DOCTYPE svg PUBLIC "-//W3C//DTD SVG 1.1//EN" "http://www.w3.org/Graphics/SVG/1.1/DTD/svg11.dtd">
<svg width="100%" height="100%" viewBox="0 0 920 200" version="1.1" xmlns="http://www.w3.org/2000/svg" xmlns:xlink="http://www.w3.org/1999/xlink" xml:space="preserve" xmlns:serif="http://www.serif.com/" style="fill-rule:evenodd;clip-rule:evenodd;stroke-linejoin:round;stroke-miterlimit:2;">
    <g transform="matrix(5.43481,0,0,5.43481,-15746.4,-5136.26)">
        <g id="Layer-1" serif:id="Layer 1">
            <g id="g3359">
                <g id="g3371">
                    <path id="path3356" d="M3054.83,974.386C3054.83,972.001 3056.76,970.066 3059.15,970.066C3061.53,970.066 3063.47,972.001 3063.47,974.386C3063.47,976.771 3061.53,978.705 3059.15,978.705C3056.76,978.705 3054.83,976.771 3054.83,974.386" style="fill:rgb(134,188,36);fill-rule:nonzero;"/>
                    <g id="path3360" transform="matrix(1,0,0,0.494158,0,494.829)">
                        <path d="M2917.05,962.946C2917.05,960.209 2916.53,958.179 2915.47,956.857C2914.41,955.536 2912.81,954.876 2910.65,954.876L2908.36,954.876L2908.36,971.608L2910.11,971.608C2912.51,971.608 2914.26,970.898 2915.38,969.473C2916.49,968.051 2917.05,965.874 2917.05,962.946M2925.24,962.661C2925.24,967.646 2923.89,971.487 2921.22,974.183C2918.53,976.881 2914.77,978.229 2909.91,978.229L2900.47,978.229L2900.47,948.358L2910.57,948.358C2915.25,948.358 2918.87,949.584 2921.41,952.036C2923.96,954.488 2925.24,958.028 2925.24,962.661" style="fill:rgb(15,11,11);fill-rule:nonzero;"/>
                    </g>
                    <g id="path33601" serif:id="path3360" transform="matrix(1,0,0,0.5257,0,450.295)">
                        <path d="M2917.05,962.946C2917.05,960.209 2916.53,958.179 2915.47,956.857C2914.41,955.536 2912.81,954.876 2910.65,954.876L2908.36,954.876L2908.36,971.608L2910.11,971.608C2912.51,971.608 2914.26,970.898 2915.38,969.473C2916.49,968.051 2917.05,965.874 2917.05,962.946M2925.24,962.661C2925.24,967.646 2923.89,971.487 2921.22,974.183C2918.53,976.881 2914.77,978.229 2909.91,978.229L2900.47,978.229L2900.47,948.358L2910.57,948.358C2915.25,948.358 2918.87,949.584 2921.41,952.036C2923.96,954.488 2925.24,958.028 2925.24,962.661" style="fill:rgb(134,188,36);fill-rule:nonzero;"/>
                    </g>
                    <rect id="path3362" x="2951.37" y="948.233" width="7.509" height="29.996" style="fill:rgb(15,11,11);fill-rule:nonzero;"/>
                    <path id="path3366" d="M2969.43,967.04C2969.43,968.953 2969.68,970.411 2970.18,971.414C2970.68,972.418 2971.52,972.919 2972.69,972.919C2973.86,972.919 2974.68,972.418 2975.16,971.414C2975.64,970.411 2975.88,968.953 2975.88,967.04C2975.88,965.138 2975.64,963.703 2975.15,962.734C2974.66,961.763 2973.83,961.276 2972.66,961.276C2971.5,961.276 2970.68,961.76 2970.18,962.723C2969.68,963.686 2969.43,965.125 2969.43,967.04M2983.52,967.04C2983.52,970.684 2982.57,973.526 2980.65,975.564C2978.74,977.603 2976.06,978.623 2972.62,978.623C2969.32,978.623 2966.69,977.58 2964.74,975.495C2962.78,973.41 2961.8,970.593 2961.8,967.04C2961.8,963.408 2962.76,960.585 2964.68,958.573C2966.59,956.56 2969.28,955.554 2972.73,955.554C2974.87,955.554 2976.76,956.02 2978.4,956.951C2980.04,957.883 2981.3,959.216 2982.19,960.954C2983.08,962.689 2983.52,964.719 2983.52,967.04" style="fill:rgb(15,11,11);fill-rule:nonzero;"/>
                    <path id="path3370" d="M2986.51,978.229L2994.02,978.229L2994.02,955.948L2986.51,955.948L2986.51,978.229Z" style="fill:rgb(15,11,11);fill-rule:nonzero;"/>
                    <rect id="path3372" x="2986.51" y="948.231" width="7.51" height="5.021" style="fill:rgb(15,11,11);fill-rule:nonzero;"/>
                    <path id="path3376" d="M3009.23,972.546C3010.24,972.546 3011.45,972.288 3012.86,971.777L3012.86,977.383C3011.85,977.828 3010.89,978.147 3009.97,978.336C3009.06,978.527 3007.98,978.622 3006.75,978.622C3004.23,978.622 3002.41,977.988 3001.3,976.723C3000.19,975.458 2999.63,973.516 2999.63,970.895L2999.63,961.71L2997,961.71L2997,955.95L2999.63,955.95L2999.63,950.26L3007.2,948.943L3007.2,955.95L3011.99,955.95L3011.99,961.71L3007.2,961.71L3007.2,970.382C3007.2,971.825 3007.88,972.546 3009.23,972.546" style="fill:rgb(15,11,11);fill-rule:nonzero;"/>
                    <path id="path3380" d="M3026.61,972.546C3027.62,972.546 3028.83,972.288 3030.24,971.777L3030.24,977.383C3029.23,977.828 3028.27,978.147 3027.35,978.336C3026.43,978.527 3025.37,978.622 3024.13,978.622C3021.61,978.622 3019.8,977.988 3018.68,976.723C3017.57,975.458 3017.01,973.516 3017.01,970.895L3017.01,961.71L3014.38,961.71L3014.38,955.95L3017.01,955.95L3017.01,950.173L3024.58,948.943L3024.58,955.95L3029.37,955.95L3029.37,961.71L3024.58,961.71L3024.58,970.382C3024.58,971.825 3025.26,972.546 3026.61,972.546" style="fill:rgb(15,11,11);fill-rule:nonzero;"/>
                    <path id="path3384" d="M3039.72,964.326C3039.82,963.106 3040.17,962.212 3040.76,961.641C3041.36,961.071 3042.1,960.786 3042.98,960.786C3043.94,960.786 3044.71,961.106 3045.28,961.751C3045.85,962.392 3046.14,963.251 3046.17,964.326L3039.72,964.326ZM3050.31,958.181C3048.52,956.431 3045.99,955.555 3042.71,955.555C3039.27,955.555 3036.62,956.561 3034.76,958.573C3032.91,960.586 3031.98,963.473 3031.98,967.236C3031.98,970.88 3032.98,973.69 3034.98,975.662C3036.99,977.635 3039.8,978.622 3043.43,978.622C3045.16,978.622 3046.66,978.503 3047.92,978.267C3049.16,978.033 3050.37,977.611 3051.54,977.001L3050.39,971.98C3049.54,972.327 3048.73,972.595 3047.96,972.771C3046.86,973.027 3045.65,973.156 3044.33,973.156C3042.88,973.156 3041.74,972.802 3040.9,972.095C3040.06,971.386 3039.62,970.408 3039.56,969.163L3052.99,969.163L3052.99,965.742C3052.99,962.451 3052.09,959.93 3050.31,958.181" style="fill:rgb(15,11,11);fill-rule:nonzero;"/>
                    <path id="path3388" d="M2935.2,964.326C2935.3,963.106 2935.65,962.212 2936.25,961.641C2936.84,961.071 2937.58,960.786 2938.47,960.786C2939.43,960.786 2940.19,961.106 2940.76,961.751C2941.33,962.392 2941.63,963.251 2941.65,964.326L2935.2,964.326ZM2945.79,958.181C2944.01,956.431 2941.47,955.555 2938.2,955.555C2934.75,955.555 2932.1,956.561 2930.25,958.573C2928.39,960.586 2927.46,963.473 2927.46,967.236C2927.46,970.88 2928.46,973.69 2930.47,975.662C2932.47,977.635 2935.28,978.622 2938.91,978.622C2940.65,978.622 2942.15,978.503 2943.4,978.267C2944.65,978.033 2945.86,977.611 2947.03,977.001L2945.87,971.98C2945.02,972.327 2944.21,972.595 2943.45,972.771C2942.34,973.027 2941.13,973.156 2939.81,973.156C2938.36,973.156 2937.22,972.802 2936.38,972.095C2935.54,971.386 2935.1,970.408 2935.05,969.163L2948.47,969.163L2948.47,965.742C2948.47,962.451 2947.58,959.93 2945.79,958.181" style="fill:rgb(15,11,11);fill-rule:nonzero;"/>
                </g>
            </g>
        </g>
    </g>
</svg>
